<?xml version="1.0" encoding="UTF-8" standalone="no"?><!DOCTYPE svg PUBLIC "-//W3C//DTD SVG 1.1//EN" "http://www.w3.org/Graphics/SVG/1.1/DTD/svg11.dtd"><svg width="100%" height="100%" viewBox="0 0 300 300" version="1.1" xmlns="http://www.w3.org/2000/svg" xmlns:xlink="http://www.w3.org/1999/xlink" xml:space="preserve" xmlns:serif="http://www.serif.com/" style="fill-rule:evenodd;clip-rule:evenodd;stroke-linejoin:round;stroke-miterlimit:1.41421;"><g><path d="M210.366,231.751l-87.388,-57.272l24.416,-29.781l62.972,87.053Z" style="fill:url(#_Linear1);"/><clipPath id="_clip2"><path d="M210.366,231.751l-87.388,-57.272l24.416,-29.781l62.972,87.053Z"/></clipPath><g clip-path="url(#_clip2)"><path d="M163.481,146.767l-53.487,25.535l4.684,9.811l53.487,-25.535l-4.684,-9.811Z" style="fill:url(#_Linear3);"/></g><path d="M122.978,174.479l73.97,-90.225l40.806,37.956l-114.776,52.269Z" style="fill:url(#_Linear4);"/><clipPath id="_clip5"><path d="M122.978,174.479l73.97,-90.225l40.806,37.956l-114.776,52.269Z"/></clipPath><g clip-path="url(#_clip5)"><path d="M242.974,113.85l-62.473,-20.763l-3.949,11.882l62.473,20.763l3.949,-11.882Z" style="fill:url(#_Linear6);"/></g><path d="M237.754,122.21l-177.685,-60.641l49.829,-58.285l127.856,118.926Z" style="fill:url(#_Linear7);"/><clipPath id="_clip8"><path d="M237.754,122.21l-177.685,-60.641l49.829,-58.285l127.856,118.926Z"/></clipPath><g clip-path="url(#_clip8)"><path d="M109.941,78.59l4.873,1.663l-0.413,-72.78l-4.503,-4.189l-14.143,16.544l14.186,58.762Z" style="fill:url(#_Linear9);"/></g><path d="M110.064,297.126l-49.995,-235.557l49.829,-58.285l0.166,293.842Z" style="fill:url(#_Linear10);"/></g><defs><linearGradient id="_Linear1" x1="0" y1="0" x2="1" y2="0" gradientUnits="userSpaceOnUse" gradientTransform="matrix(74.9241,72.4746,-72.4746,74.9241,135.442,159.277)"><stop offset="0" style="stop-color:#4776e6;stop-opacity:1"/><stop offset="1" style="stop-color:#8e54e9;stop-opacity:1"/></linearGradient><linearGradient id="_Linear3" x1="0" y1="0" x2="1" y2="0" gradientUnits="userSpaceOnUse" gradientTransform="matrix(4.68386,9.81136,-25.4417,12.1457,163.481,146.767)"><stop offset="0" style="stop-color:#0c0000;stop-opacity:1"/><stop offset="1" style="stop-color:#4d4d4d;stop-opacity:0"/></linearGradient><linearGradient id="_Linear4" x1="0" y1="0" x2="1" y2="0" gradientUnits="userSpaceOnUse" gradientTransform="matrix(-94.2664,71.3471,-71.3471,-94.2664,217.244,103.132)"><stop offset="0" style="stop-color:#ee0979;stop-opacity:1"/><stop offset="1" style="stop-color:#ff6a00;stop-opacity:1"/></linearGradient><linearGradient id="_Linear6" x1="0" y1="0" x2="1" y2="0" gradientUnits="userSpaceOnUse" gradientTransform="matrix(-3.94914,11.8821,-29.7156,-9.87628,242.974,113.85)"><stop offset="0" style="stop-color:#0c0000;stop-opacity:1"/><stop offset="1" style="stop-color:#4d4d4d;stop-opacity:0"/></linearGradient><linearGradient id="_Linear7" x1="0" y1="0" x2="1" y2="0" gradientUnits="userSpaceOnUse" gradientTransform="matrix(-165.104,-97.0534,97.0534,-165.104,237.754,122.21)"><stop offset="0" style="stop-color:#4776e6;stop-opacity:1"/><stop offset="1" style="stop-color:#8e54e9;stop-opacity:1"/></linearGradient><linearGradient id="_Linear9" x1="0" y1="0" x2="1" y2="0" gradientUnits="userSpaceOnUse" gradientTransform="matrix(19.0596,-1.35213e-15,-5.46034e-15,76.9687,95.7548,41.7686)"><stop offset="0" style="stop-color:#0c0000;stop-opacity:1"/><stop offset="1" style="stop-color:#4d4d4d;stop-opacity:0"/></linearGradient><linearGradient id="_Linear10" x1="0" y1="0" x2="1" y2="0" gradientUnits="userSpaceOnUse" gradientTransform="matrix(-31.1538,-289.184,289.184,-31.1538,110.064,297.126)"><stop offset="0" style="stop-color:#ff6a00;stop-opacity:1"/><stop offset="1" style="stop-color:#ee0979;stop-opacity:1"/></linearGradient></defs></svg>